<?xml version='1.0' encoding='UTF-8'?>
<svg viewBox="-4 -2 32 32" xmlns="http://www.w3.org/2000/svg" xmlns:xlink="http://www.w3.org/1999/xlink">
  <g id="Layer_1" transform="translate(-4, -2.00000011920929)" style="enable-background:new 0 0 32 32">
    <g id="Report">
      <path d="M27, 4L24, 4L24, 26L8, 26L8, 4L5, 4C4.4, 4 4, 4.4 4, 5L4, 29C4, 29.6 4.4, 30 5, 30L27, 30C27.6, 30 28, 29.6 28, 29L28, 5C28, 4.4 27.6, 4 27, 4z" fill="#727272" class="Black" />
    </g>
  </g>
  <g id="Layer_1" transform="translate(-4.00000095367432, -2)" style="enable-background:new 0 0 32 32">
    <g id="Report">
      <path d="M20, 4L20, 3C20, 2.4 19.6, 2 19, 2L13, 2C12.4, 2 12, 2.4 12, 3L12, 4L10, 4L10, 8L13, 8L19, 8L22, 8L22, 4L20, 4z" fill="#727272" class="Black" />
    </g>
  </g>
  <g id="Layer_1" transform="translate(-4, -2)" style="enable-background:new 0 0 32 32">
    <g id="Report">
      <g class="st0">
        <rect x="10" y="20" width="12" height="2" fill="#727272" opacity="0.75" class="Black" />
      </g>
    </g>
  </g>
  <g id="Layer_1" transform="translate(-4, -2)" style="enable-background:new 0 0 32 32">
    <g id="Report">
      <g class="st0">
        <rect x="10" y="12" width="12" height="2" fill="#727272" opacity="0.75" class="Black" />
      </g>
    </g>
  </g>
  <g id="Layer_1" transform="translate(-4, -2)" style="enable-background:new 0 0 32 32">
    <g id="Report">
      <g class="st0">
        <rect x="10" y="16" width="12" height="2" fill="#727272" opacity="0.75" class="Black" />
      </g>
    </g>
  </g>
  <g id="Layer_1" transform="translate(8, 12)" style="enable-background:new 0 0 16 16">
    <g id="Options">
      <path d="M2.9, 0.5C1.8, 1 1, 1.8 0.5, 2.9L3.2, 5.6C3.8, 6.2 4.9, 6.2 5.6, 5.6L5.6, 5.6C6.2, 5 6.2, 3.9 5.6, 3.2L2.9, 0.5z" fill="Transparent" class="Transparent" />
    </g>
  </g>
  <g id="Layer_1" transform="translate(8, 12)" style="enable-background:new 0 0 16 16">
    <g id="Options">
      <path d="M15.6, 13.6L9.4, 7.4C9.8, 6.7 10, 5.9 10, 5C10, 2.2 7.8, 0 5, 0C4.2, 0 3.5, 0.2 2.9, 0.5L5.6, 3.2C6.2, 3.8 6.2, 4.9 5.6, 5.6C5, 6.3 3.9, 6.2 3.2, 5.6L0.5, 2.9C0.2, 3.5 0, 4.2 0, 5C0, 7.8 2.2, 10 5, 10C5.9, 10 6.7, 9.8 7.4, 9.4L13.6, 15.6C14.2, 16.2 15, 16.2 15.6, 15.6L15.6, 15.6C16.1, 15 16.1, 14.1 15.6, 13.6z" fill="#727272" class="Black" />
    </g>
  </g>
</svg>